<svg viewBox="0 0 680 680" xmlns="http://www.w3.org/2000/svg">
  <rect x="40" y="40" width="600" height="600" rx="130" fill="#1a1a2e"/>
  <rect x="40" y="40" width="600" height="600" rx="130" fill="none" stroke="#6c63ff" stroke-width="6" opacity="0.3"/>
  <circle cx="340" cy="340" r="175" fill="#6c63ff" opacity="0.12"/>
  <g transform="translate(340, 340)">
    <polygon points="0,-130 -120,10 120,10" fill="#6c63ff" opacity="0.9"/>
    <polygon points="0,-130 -120,10 120,10" fill="none" stroke="#a89fff" stroke-width="4" stroke-linejoin="round"/>
    <rect x="-85" y="10" width="170" height="115" rx="6" fill="#4a42cc"/>
    <rect x="-85" y="10" width="170" height="115" rx="6" fill="none" stroke="#7a72ee" stroke-width="3"/>
    <rect x="-30" y="55" width="60" height="70" rx="8" fill="#6c63ff"/>
    <rect x="-30" y="55" width="60" height="70" rx="8" fill="none" stroke="#a89fff" stroke-width="2.5"/>
    <circle cx="22" cy="93" r="6" fill="#a89fff"/>
    <rect x="-72" y="25" width="38" height="38" rx="5" fill="#3d35b5" stroke="#7a72ee" stroke-width="2"/>
    <line x1="-53" y1="25" x2="-53" y2="63" stroke="#6c63ff" stroke-width="2"/>
    <line x1="-72" y1="44" x2="-34" y2="44" stroke="#6c63ff" stroke-width="2"/>
    <rect x="34" y="25" width="38" height="38" rx="5" fill="#3d35b5" stroke="#7a72ee" stroke-width="2"/>
    <line x1="53" y1="25" x2="53" y2="63" stroke="#6c63ff" stroke-width="2"/>
    <line x1="34" y1="44" x2="72" y2="44" stroke="#6c63ff" stroke-width="2"/>
  </g>
  <circle cx="490" cy="190" r="28" fill="#6c63ff" opacity="0.2"/>
  <circle cx="490" cy="190" r="16" fill="#6c63ff" opacity="0.4"/>
  <circle cx="490" cy="190" r="7" fill="#a89fff"/>
  <circle cx="195" cy="480" r="22" fill="#6c63ff" opacity="0.15"/>
  <circle cx="195" cy="480" r="10" fill="#6c63ff" opacity="0.35"/>
  <circle cx="495" cy="470" r="14" fill="#6c63ff" opacity="0.2"/>
  <circle cx="495" cy="470" r="6" fill="#a89fff" opacity="0.5"/>
</svg>
